<?xml version="1.0" encoding="utf-8"?>
<!-- Generator: Adobe Illustrator 19.2.1, SVG Export Plug-In . SVG Version: 6.00 Build 0)  -->
<svg version="1.1" id="layer" xmlns="http://www.w3.org/2000/svg" xmlns:xlink="http://www.w3.org/1999/xlink" x="0px" y="0px"
	 viewBox="0 0 652 652" style="enable-background:new 0 0 652 652;" xml:space="preserve">
<style type="text/css">
	.st0{fill-rule:evenodd;clip-rule:evenodd;fill:#9D9FA1;}
	.st1{fill:#2D3394;}
	.st2{fill-rule:evenodd;clip-rule:evenodd;fill:#2D3394;}
</style>
<path class="st0" d="M48.9,302.5c-6.9,6.1-14.7,10.7-23.1,14.3l29.9,21.4L54,339l-12.4-8.2c-4-2.7-14-0.8-16,2.6l23,16.1
	c6.4-6.1,14.1-11,23.2-14.7l-30.2-21l1.6-1.3l9.8,7c4.9,3.5,8.8,4.4,19.3-0.8L48.9,302.5"/>
<polyline class="st1" points="95.7,314.2 108.8,314.2 112.7,327.9 112.7,327.9 116.6,314.2 129.6,314.2 129.6,337.7 121.2,337.7 
	121.2,320.9 121.1,320.9 116.2,337.7 109.2,337.7 104.2,320.9 104.2,320.9 104.2,337.7 95.7,337.7 95.7,314.2 "/>
<path class="st1" d="M146.6,321.3L146.6,321.3l-2.8,8h5.6L146.6,321.3 M140.8,314.2h11.4l10,23.5h-9.9l-1-2.7h-9.7l-1,2.7h-9.9
	L140.8,314.2z"/>
<path class="st1" d="M194.2,314.2h9.3v14.2c0,3,1.7,4,4.8,4c3,0,4.8-1,4.8-4v-14.2h9.3v14.6c0,7.5-4.5,9.7-14.1,9.7
	c-9.5,0-14.1-2.3-14.1-9.7V314.2"/>
<polyline class="st1" points="232.8,320.1 224.2,320.1 224.2,314.2 250.7,314.2 250.7,320.1 242.1,320.1 242.1,337.7 232.8,337.7 
	232.8,320.1 "/>
<rect x="252.6" y="314.2" class="st1" width="9.3" height="23.5"/>
<path class="st1" d="M172.5,320.1h6.5c1.5,0,2.7,0.4,2.7,2.2c0,1.5-0.8,2.2-2.6,2.2h-6.6V320.1 M193.7,337.7l-7.9-7.3
	c6.5-1,5.7-7.4,5.7-9.6c0-2.6-1.4-4.8-3.2-5.7c-1.3-0.6-2.9-0.9-5.6-0.9h-19.5v23.5h9.3v-7.2h1.6l7.8,7.2H193.7z"/>
<path class="st1" d="M292.1,327.7c-4.5-0.7-6.4-3.3-6.4-6.6c0-6.1,6-7.7,13.6-7.7c10.5,0,14.8,2.7,15.1,7.7h-10.8
	c0-1-0.6-1.5-1.4-1.9c-0.8-0.4-1.9-0.5-2.9-0.5c-2.8,0-3.7,0.7-3.7,1.7c0,0.7,0.3,1.1,1.2,1.2l11.1,1.6c4.7,0.7,7.6,2.9,7.6,6.8
	c0,5.7-4.7,8.4-15.1,8.4c-7.1,0-14.9-1-15-7.9h11.2c0,0.8,0.3,1.3,1,1.7c0.7,0.3,1.7,0.5,3.2,0.5c2.9,0,3.7-0.8,3.7-1.9
	c0-0.7-0.4-1.4-1.7-1.6L292.1,327.7"/>
<path class="st1" d="M318,314.2h9.3v14.2c0,3,1.7,4,4.8,4c3,0,4.8-1,4.8-4v-14.2h9.3v14.6c0,7.5-4.5,9.7-14.1,9.7
	c-9.5,0-14.1-2.3-14.1-9.7V314.2"/>
<polyline class="st1" points="348.6,332.7 362.7,320.1 349.6,320.1 349.6,314.2 375.2,314.2 375.2,319.3 361.5,331.8 374.9,331.8 
	374.9,337.7 348.6,337.7 348.6,332.7 "/>
<path class="st1" d="M377.7,314.2h9.3v14.2c0,3,1.7,4,4.8,4c3,0,4.8-1,4.8-4v-14.2h9.3v14.6c0,7.5-4.5,9.7-14.1,9.7
	c-9.5,0-14.1-2.3-14.1-9.7V314.2"/>
<rect x="442.3" y="314.2" class="st1" width="9.3" height="23.5"/>
<polyline class="st2" points="409.9,337.7 418.9,337.7 418.7,329.3 427.8,337.7 439.6,337.7 426.7,325.7 440.3,314.2 429,314.2 
	418.9,322.3 418.9,314.2 409.9,314.2 409.9,337.7 "/>
<polyline class="st1" points="540.8,334.9 540.8,326.9 559.4,326.9 559.4,324.1 540.8,324.1 540.8,317 561.8,317 561.8,314.2 
	537.6,314.2 537.6,337.7 562,337.7 562,334.9 540.8,334.9 "/>
<path class="st1" d="M611,314.2h-2.5l-15.1,23.5h3.8l4.5-7h15.9l4.4,7h3.7L611,314.2 M615.8,327.9h-12.3l6.3-9.7L615.8,327.9z"/>
<path class="st1" d="M492.6,314.2h-2.5L475,337.7h3.8l4.5-7h15.9l4.4,7h3.7L492.6,314.2 M497.4,327.9h-12.3l6.3-9.7L497.4,327.9z"/>
<path class="st1" d="M589,314.2v19.1c-2.2-2-5.7-5.1-10.4-9.1c-4.8-4.2-8.5-7.5-11-9.9l-0.1-0.1h-3v23.5h3.2v-19.2l21.5,19.2h3
	v-23.5H589"/>
<path class="st1" d="M528.6,327.2c0.6-0.1,1-0.3,1.5-0.5c3-1.1,4.6-3,4.6-5.6c0-4.6-3.9-7-11.6-7h-14.6v23.5h3.2v-9.8h10.9
	c0.8,0,1.7,0,2.6-0.1l6.2,9.9h3.7L528.6,327.2 M528.8,324.2c-1.5,0.6-3.3,0.9-5.4,0.9h-11.7V317h11.7c5.4,0,8,1.4,8,4.2
	C531.4,322.5,530.5,323.5,528.8,324.2"/>
</svg>
